<?xml version="1.0" standalone="no"?><!DOCTYPE svg PUBLIC "-//W3C//DTD SVG 1.1//EN" "http://www.w3.org/Graphics/SVG/1.1/DTD/svg11.dtd"><svg t="1768359102154" class="icon" viewBox="0 0 1024 1024" version="1.1" xmlns="http://www.w3.org/2000/svg" p-id="9873" xmlns:xlink="http://www.w3.org/1999/xlink" width="200" height="200"><path d="M642.43 838.21c95.21-0.87 172.4-78.58 172.4-174 0-75.89-50.12-143.57-122.44-166.16-13.53-53.12-7.4-88.43-7.32-88.91a8.07 8.07 0 0 0 0.13-1.68 180.28 180.28 0 0 0-117.1-221.1c-6.39-11.58-12.46-26.1-18.35-40.18-14-33.54-21.33-49.66-33.81-49.66-14.44 0-26.34 23.1-47.86 67.37-3.56 7.32-7.19 14.79-10.88 22.13-74 23.63-125.41 93.7-125.41 171.63a180.33 180.33 0 0 0 7.14 50.27 8.06 8.06 0 0 0 0.13 1.25c0.09 0.47 6.33 35.62-7.27 88.83-72.43 22.53-122.63 90.22-122.63 166.22 0 95.42 77.21 173.14 172.42 174a224.43 224.43 0 0 0 40.88 23.24v50h-27.7a8 8 0 1 0 0 16.07h35.74a8 8 0 0 0 8-8v-51.79a224.43 224.43 0 0 0 147.1-0.06v51.76a8 8 0 0 0 8 8h35.74a8 8 0 0 0 0-16.07h-27.7v-50a224.44 224.44 0 0 0 40.79-23.16z m156.33-174c0 79.14-58.5 144.86-134.53 156.21a224.19 224.19 0 0 0 52.25-257.2 8.11 8.11 0 0 0-0.57-1.55 340.67 340.67 0 0 1-18-44.67c60.09 23.44 100.85 82 100.85 147.21z m-573.52 0c0-65.33 40.88-123.89 101.07-147.28a342.55 342.55 0 0 1-18.1 44.74 8 8 0 0 0-0.32 0.76 224.21 224.21 0 0 0 51.9 258c-76.04-11.35-134.55-77.07-134.55-156.22z m78.43-8.51a206.28 206.28 0 0 1 19.07-87.12c44.69-91.78 32.65-159.58 32.11-162.39a7.89 7.89 0 0 0-0.22-0.88l0.27-0.08a164.16 164.16 0 0 1-7-47.6c0-72 48.22-136.69 117.26-157.26l5.74-1.7v-4.07c3.94-7.84 7.85-15.86 11.66-23.7 10.28-21.15 25.57-52.6 33-57.84 4.93 4.83 13.53 25.4 19.35 39.3 6.55 15.66 13.33 31.85 20.8 44.73l1.59 2.72 3 0.93A164.24 164.24 0 0 1 669 405.71l0.4 0.12c0 0.12-0.06 0.24-0.09 0.36-0.53 2.84-12.59 70.66 32.18 162.5l-0.12 0.05a206.14 206.14 0 0 1 19 86.95C720.35 770.57 626.89 864 512 864s-208.33-93.43-208.33-208.3z" p-id="9874" fill="#2c2c2c"></path><path d="M394.77 340.01m-21.38 0a21.38 21.38 0 1 0 42.76 0 21.38 21.38 0 1 0-42.76 0Z" p-id="9875" fill="#2c2c2c"></path><path d="M629.25 340.01m-21.38 0a21.38 21.38 0 1 0 42.76 0 21.38 21.38 0 1 0-42.76 0Z" p-id="9876" fill="#2c2c2c"></path><path d="M529 390.44c-9.06-9.06-24.89-9-33.92 0L473 412.5a24 24 0 0 0 0 33.93l22 22.07a24 24 0 0 0 33.92 0L551 446.44a24 24 0 0 0 0-33.93z m10.7 44.62l-22.1 22.08a8.13 8.13 0 0 1-11.19 0l-22.07-22.08a7.94 7.94 0 0 1 0-11.19l22.07-22.07a8 8 0 0 1 11.19 0l22.07 22.08a7.93 7.93 0 0 1 0 11.18z" p-id="9877" fill="#2c2c2c"></path></svg>